{"accessors":[{"bufferView":0,"componentType":5121,"count":6,"max":[3],"min":[0],"type":"SCALAR"},{"bufferView":1,"componentType":5126,"count":4,"max":[30820.21875,0.0,20494.87109375],"min":[-37667.359375,0.0,-18640.888671875],"type":"VEC3"},{"bufferView":2,"componentType":5126,"count":4,"max":[0.0,1.0,-0.0],"min":[0.0,1.0,-0.0],"type":"VEC3"},{"bufferView":3,"componentType":5126,"count":4,"max":[1.0,1.0000000085884446],"min":[2.0973571768223565e-09,0.0],"type":"VEC2"},{"bufferView":4,"componentType":5126,"count":4,"max":[0.9999576807022095,0.9989045894471928],"min":[2.821876114467159e-05,0.000819087028503418],"type":"VEC2"}],"asset":{"generator":"Soft8Soft Verge3D for Blender add-on","version":"2.0"},"bufferViews":[{"buffer":0,"byteLength":6,"byteOffset":0,"target":34963},{"buffer":0,"byteLength":48,"byteOffset":8,"target":34962},{"buffer":0,"byteLength":48,"byteOffset":56,"target":34962},{"buffer":0,"byteLength":32,"byteOffset":104,"target":34962},{"buffer":0,"byteLength":32,"byteOffset":136,"target":34962}],"buffers":[{"byteLength":168,"uri":"Mainz13.bin"}],"cameras":[{"extensions":{"S8S_v3d_camera_data":{"controls":"ORBIT","enablePan":true,"moveSpeed":1.0,"orbitMaxDistance":100.0,"orbitMaxPolarAngle":3.1415927410125732,"orbitMaxZoom":100.0,"orbitMinDistance":0.0,"orbitMinPolarAngle":0.0,"orbitMinZoom":0.009999999776482582,"orbitTarget":[0.0,0.0,-0.0],"rotateSpeed":1.0,"viewportFitInitialAspect":1.7777777777777777,"viewportFitType":"AUTO"}},"name":"Camera","perspective":{"aspectRatio":1.7777777777777777,"yfov":0.39959652046304894,"zfar":100.0,"znear":0.10000000149011612},"type":"perspective"}],"extensions":{"S8S_v3d_data":{"lights":[{"color":[1.0,1.0,1.0],"decay":2,"distance":31.622776955095866,"intensity":1000.0,"name":"Light","profile":"blender","shadow":{"bias":-0.0018,"cameraFar":31.622776955095866,"cameraFov":0,"cameraNear":0.05000000074505806,"enabled":true,"expBias":2.5,"mapSize":512,"radius":1.0,"slopeScaledBias":2.5},"type":"point"}]}},"extensionsUsed":["S8S_v3d_texture_data","S8S_v3d_material_data","S8S_v3d_camera_data","S8S_v3d_data","S8S_v3d_mesh_data","S8S_v3d_node_data","S8S_v3d_scene_data"],"images":[{"uri":"GOOGLE_SAT_WM.png"}],"materials":[{"extensions":{"S8S_v3d_material_data":{"gtaoVisible":true,"materialIndex":0,"nodeGraph":{"edges":[{"fromNode":0,"fromOutput":0,"toInput":0,"toNode":1},{"fromNode":1,"fromOutput":0,"toInput":0,"toNode":2},{"fromNode":2,"fromOutput":0,"toInput":0,"toNode":3}],"nodes":[{"inputs":[],"is_active_output":false,"name":"UV Map","outputs":[[0.0,0.0,0.0]],"type":"UVMAP_BL","uvLayer":"rastUVmap"},{"clampToEdgeNoExtend":true,"inputs":[[0.0,0.0,0.0]],"is_active_output":false,"name":"Image Texture","outputs":[[0.0,0.0,0.0,0.0],0.0],"projection":"FLAT","projectionBlend":0.0,"texture":0,"type":"TEX_IMAGE_BL"},{"inputs":[[0.800000011920929,0.800000011920929,0.800000011920929,1.0],0.0,[1.0,0.20000000298023224,0.10000000149011612],[0.800000011920929,0.800000011920929,0.800000011920929,1.0],1.399999976158142,0.0,0.0,0.5,0.0,0.5,0.0,0.0,0.0,0.5,0.0,0.029999999329447746,1.4500000476837158,0.0,0.0,[0.0,0.0,0.0,1.0],1.0,1.0,[0.0,0.0,0.0],[0.0,0.0,0.0],[0.0,0.0,0.0]],"is_active_output":false,"name":"Principled BSDF","outputs":[[0,0,0,0]],"type":"BSDF_PRINCIPLED_BL"},{"inputs":[[0,0,0,0],[0,0,0,0],[0.0,0.0,0.0]],"is_active_output":true,"name":"Material Output","outputs":[],"type":"OUTPUT_MATERIAL_BL"}]},"useCastShadows":true}},"name":"rastMat"},{"extensions":{"S8S_v3d_material_data":{"gtaoVisible":true,"materialIndex":0,"nodeGraph":{"edges":[{"fromNode":1,"fromOutput":0,"toInput":0,"toNode":0}],"nodes":[{"inputs":[[0,0,0,0],[0,0,0,0]],"is_active_output":true,"name":"World Output","outputs":[],"type":"OUTPUT_WORLD_BL"},{"inputs":[[0.05087608844041824,0.05087608844041824,0.05087608844041824,1.0],1.0],"is_active_output":false,"name":"Background","outputs":[[0,0,0,0]],"type":"BACKGROUND_BL"}]},"useCastShadows":true}},"name":"Verge3D_Environment_World"}],"meshes":[{"extensions":{"S8S_v3d_mesh_data":{"colorLayers":{},"uvLayers":{"demUVmap":"TEXCOORD_1","rastUVmap":"TEXCOORD_0"}}},"name":"EXPORT_GOOGLE_SAT_WM","primitives":[{"attributes":{"NORMAL":2,"POSITION":1,"TEXCOORD_0":3,"TEXCOORD_1":4},"indices":0,"material":0,"mode":4}]}],"nodes":[{"extensions":{"S8S_v3d_node_data":{"frustumCulling":true,"groupNames":[],"hidden":false,"hidpiCompositing":false,"objectColor":[1.0,1.0,1.0],"objectIndex":0,"renderOrder":0}},"name":"GOOGLE_SAT_WM","scale":[68487.578125,1.0,68487.578125],"translation":[-3423.57080078125,0.0,926.9915161132812]},{"extensions":{"S8S_v3d_node_data":{"frustumCulling":true,"groupNames":["Collection"],"hidden":false,"hidpiCompositing":false,"light":0,"objectColor":[0.0,0.0,0.0],"objectIndex":0,"renderOrder":0}},"name":"Light","rotation":[-0.2841663062572479,0.7269423604011536,0.34203389286994934,0.5232754945755005],"scale":[0.9999999403953552,0.9999997019767761,0.9999999403953552],"translation":[-918217.875,5.903861999511719,6458326.0]},{"camera":0,"extensions":{"S8S_v3d_node_data":{"frustumCulling":true,"groupNames":["Collection"],"hidden":false,"hidpiCompositing":false,"objectColor":[0.0,0.0,0.0],"objectIndex":0,"renderOrder":0}},"name":"Camera","rotation":[-0.20997294783592224,0.3857799768447876,0.09062846004962921,0.8937962055206299],"scale":[1.0,0.9999999403953552,0.9999998807907104],"translation":[-918214.625,4.958309173583984,6458334.0]},{"extensions":{"S8S_v3d_node_data":{"frustumCulling":true,"groupNames":[],"hidden":false,"hidpiCompositing":false,"objectColor":[1.0,1.0,1.0],"objectIndex":0,"renderOrder":0,"useShadows":true}},"mesh":0,"name":"EXPORT_GOOGLE_SAT_WM"}],"samplers":[{},{"magFilter":9729,"minFilter":9987,"wrapS":33071,"wrapT":33071}],"scene":0,"scenes":[{"extensions":{"S8S_v3d_scene_data":{"aaMethod":"AUTO","iblEnvironmentMode":"PMREM","physicallyCorrectLights":true,"pmremMaxTileSize":512,"shadowMap":{"esmDistanceScale":1.0,"renderReverseSided":false,"renderSingleSided":true,"type":"PCFPOISSON"},"toneMapping":{"type":"filmicBlender"},"worldMaterial":1}},"extras":{"animFrameRate":24,"coordSystem":"Z_UP_RIGHT"},"name":"Scene","nodes":[0,3,1,2]}],"textures":[{"extensions":{"S8S_v3d_texture_data":{"colorSpace":"srgb"}},"name":"EXPORT_GOOGLE_SAT_WM","sampler":1,"source":0}]}
